<mxfile host="app.diagrams.net" modified="2021-07-02T14:01:19.942Z" agent="5.0 (Macintosh; Intel Mac OS X 10_15_7) AppleWebKit/537.36 (KHTML, like Gecko) Chrome/91.0.4472.114 Safari/537.36" etag="O5zFyrShRHJHh8DxQnyq" version="14.8.3" type="github" pages="2">
  <diagram id="HgXn4bs3075ut__wA0d7" name="Page-1">
    <mxGraphModel dx="788" dy="421" grid="1" gridSize="10" guides="1" tooltips="1" connect="1" arrows="1" fold="1" page="1" pageScale="1" pageWidth="827" pageHeight="1169" math="0" shadow="0">
      <root>
        <mxCell id="0" />
        <mxCell id="1" parent="0" />
        <mxCell id="5HZApvfThKNAqFVnb32M-19" value="" style="rounded=1;whiteSpace=wrap;html=1;absoluteArcSize=1;arcSize=14;strokeWidth=2;" vertex="1" parent="1">
          <mxGeometry x="390" y="1350" width="100" height="100" as="geometry" />
        </mxCell>
        <mxCell id="5HZApvfThKNAqFVnb32M-21" value="" style="rounded=1;whiteSpace=wrap;html=1;absoluteArcSize=1;arcSize=14;strokeWidth=2;" vertex="1" parent="1">
          <mxGeometry x="120" y="1350" width="100" height="100" as="geometry" />
        </mxCell>
        <mxCell id="5HZApvfThKNAqFVnb32M-23" value="" style="verticalLabelPosition=bottom;verticalAlign=top;html=1;strokeWidth=2;shape=mxgraph.arrows2.arrow;dy=0.6;dx=40;notch=0;" vertex="1" parent="1">
          <mxGeometry x="230" y="1365" width="150" height="70" as="geometry" />
        </mxCell>
        <mxCell id="5HZApvfThKNAqFVnb32M-24" value="" style="whiteSpace=wrap;html=1;aspect=fixed;" vertex="1" parent="1">
          <mxGeometry x="280" y="1250" width="80" height="80" as="geometry" />
        </mxCell>
        <mxCell id="5HZApvfThKNAqFVnb32M-25" value="" style="shape=table;startSize=0;container=1;collapsible=0;childLayout=tableLayout;" vertex="1" parent="1">
          <mxGeometry x="180" y="1500" width="120" height="120" as="geometry" />
        </mxCell>
        <mxCell id="5HZApvfThKNAqFVnb32M-26" value="" style="shape=partialRectangle;collapsible=0;dropTarget=0;pointerEvents=0;fillColor=none;top=0;left=0;bottom=0;right=0;points=[[0,0.5],[1,0.5]];portConstraint=eastwest;" vertex="1" parent="5HZApvfThKNAqFVnb32M-25">
          <mxGeometry width="120" height="40" as="geometry" />
        </mxCell>
        <mxCell id="5HZApvfThKNAqFVnb32M-27" value="" style="shape=partialRectangle;html=1;whiteSpace=wrap;connectable=0;overflow=hidden;fillColor=none;top=0;left=0;bottom=0;right=0;" vertex="1" parent="5HZApvfThKNAqFVnb32M-26">
          <mxGeometry width="60" height="40" as="geometry" />
        </mxCell>
        <mxCell id="5HZApvfThKNAqFVnb32M-28" value="" style="shape=partialRectangle;html=1;whiteSpace=wrap;connectable=0;overflow=hidden;fillColor=none;top=0;left=0;bottom=0;right=0;" vertex="1" parent="5HZApvfThKNAqFVnb32M-26">
          <mxGeometry x="60" width="60" height="40" as="geometry" />
        </mxCell>
        <mxCell id="5HZApvfThKNAqFVnb32M-29" value="" style="shape=partialRectangle;collapsible=0;dropTarget=0;pointerEvents=0;fillColor=none;top=0;left=0;bottom=0;right=0;points=[[0,0.5],[1,0.5]];portConstraint=eastwest;" vertex="1" parent="5HZApvfThKNAqFVnb32M-25">
          <mxGeometry y="40" width="120" height="40" as="geometry" />
        </mxCell>
        <mxCell id="5HZApvfThKNAqFVnb32M-30" value="" style="shape=partialRectangle;html=1;whiteSpace=wrap;connectable=0;overflow=hidden;fillColor=none;top=0;left=0;bottom=0;right=0;" vertex="1" parent="5HZApvfThKNAqFVnb32M-29">
          <mxGeometry width="60" height="40" as="geometry" />
        </mxCell>
        <mxCell id="5HZApvfThKNAqFVnb32M-31" value="" style="shape=partialRectangle;html=1;whiteSpace=wrap;connectable=0;overflow=hidden;fillColor=none;top=0;left=0;bottom=0;right=0;" vertex="1" parent="5HZApvfThKNAqFVnb32M-29">
          <mxGeometry x="60" width="60" height="40" as="geometry" />
        </mxCell>
        <mxCell id="5HZApvfThKNAqFVnb32M-32" value="" style="shape=partialRectangle;collapsible=0;dropTarget=0;pointerEvents=0;fillColor=none;top=0;left=0;bottom=0;right=0;points=[[0,0.5],[1,0.5]];portConstraint=eastwest;" vertex="1" parent="5HZApvfThKNAqFVnb32M-25">
          <mxGeometry y="80" width="120" height="40" as="geometry" />
        </mxCell>
        <mxCell id="5HZApvfThKNAqFVnb32M-33" value="" style="shape=partialRectangle;html=1;whiteSpace=wrap;connectable=0;overflow=hidden;fillColor=none;top=0;left=0;bottom=0;right=0;" vertex="1" parent="5HZApvfThKNAqFVnb32M-32">
          <mxGeometry width="60" height="40" as="geometry" />
        </mxCell>
        <mxCell id="5HZApvfThKNAqFVnb32M-34" value="" style="shape=partialRectangle;html=1;whiteSpace=wrap;connectable=0;overflow=hidden;fillColor=none;top=0;left=0;bottom=0;right=0;" vertex="1" parent="5HZApvfThKNAqFVnb32M-32">
          <mxGeometry x="60" width="60" height="40" as="geometry" />
        </mxCell>
        <mxCell id="5HZApvfThKNAqFVnb32M-35" value="" style="ellipse;whiteSpace=wrap;html=1;" vertex="1" parent="1">
          <mxGeometry x="200" y="1110" width="80" height="80" as="geometry" />
        </mxCell>
      </root>
    </mxGraphModel>
  </diagram>
  <diagram id="7veD1rfkWWmTa7-4xYF4" name="Page-2">
    <mxGraphModel dx="946" dy="505" grid="1" gridSize="10" guides="1" tooltips="1" connect="1" arrows="1" fold="1" page="1" pageScale="1" pageWidth="827" pageHeight="1169" math="0" shadow="0">
      <root>
        <mxCell id="8iImxAh3E2b-JkPkix3L-0" />
        <mxCell id="8iImxAh3E2b-JkPkix3L-1" parent="8iImxAh3E2b-JkPkix3L-0" />
      </root>
    </mxGraphModel>
  </diagram>
</mxfile>
